<svg width="18" height="18" viewBox="0 0 18 18" fill="none" xmlns="http://www.w3.org/2000/svg">
<path fill-rule="evenodd" clip-rule="evenodd" d="M5.39999 3.37502C5.39999 2.00812 6.50808 0.900024 7.87499 0.900024H10.125C11.4919 0.900024 12.6 2.00812 12.6 3.37502V3.77344C13.1148 3.8233 13.6266 3.88374 14.1351 3.95455C15.3474 4.12336 16.2 5.17413 16.2 6.36323V9.48474C16.2 10.4988 15.5752 11.4571 14.5534 11.7708C12.7966 12.31 10.9316 12.6 8.99999 12.6C7.06841 12.6 5.20333 12.31 3.44654 11.7708C2.4248 11.4571 1.79999 10.4988 1.79999 9.48474V6.36323C1.79999 5.17413 2.65262 4.12336 3.8649 3.95455C4.37338 3.88374 4.88515 3.8233 5.39999 3.77344V3.37502ZM11.25 3.37502V3.66752C10.5057 3.62274 9.75544 3.60002 8.99999 3.60002C8.24454 3.60002 7.49432 3.62274 6.74999 3.66752V3.37502C6.74999 2.7537 7.25367 2.25002 7.87499 2.25002H10.125C10.7463 2.25002 11.25 2.7537 11.25 3.37502ZM8.99999 9.00002C8.50293 9.00002 8.09999 9.40297 8.09999 9.90002V9.90903C8.09999 10.4061 8.50293 10.809 8.99999 10.809H9.00899C9.50604 10.809 9.90899 10.4061 9.90899 9.90903V9.90002C9.90899 9.40297 9.50604 9.00002 9.00899 9.00002H8.99999Z" fill="white"/>
<path d="M2.69999 13.5497V12.9343C2.81303 12.9819 2.92987 13.0243 3.05039 13.0613C4.9341 13.6396 6.93265 13.95 8.99999 13.95C11.0673 13.95 13.0659 13.6396 14.9496 13.0613C15.0701 13.0243 15.1869 12.9819 15.3 12.9343V13.5497C15.3 14.7622 14.4138 15.8269 13.1732 15.9665C11.8032 16.1208 10.4107 16.2 8.99999 16.2C7.58927 16.2 6.19678 16.1208 4.82678 15.9665C3.58614 15.8269 2.69999 14.7622 2.69999 13.5497Z" fill="white"/>
</svg>
