<svg width="18" height="18" viewBox="0 0 18 18" fill="none" xmlns="http://www.w3.org/2000/svg">
<path d="M10.7851 1.71636C10.8492 1.41705 10.7039 1.11204 10.4311 0.973275C10.1582 0.834506 9.82614 0.896719 9.62202 1.12484L1.97202 9.67484C1.79452 9.87323 1.75019 10.1574 1.85885 10.4004C1.96751 10.6435 2.20885 10.7999 2.47506 10.7999H8.39009L7.21504 16.2835C7.15091 16.5828 7.29621 16.8878 7.56906 17.0266C7.84191 17.1654 8.17399 17.1031 8.3781 16.875L16.0281 8.32502C16.2056 8.12663 16.2499 7.84244 16.1413 7.59942C16.0326 7.35639 15.7913 7.19993 15.5251 7.19993H9.61003L10.7851 1.71636Z" fill="white"/>
</svg>
