<svg width="24" height="17" viewBox="0 0 24 17" fill="none" xmlns="http://www.w3.org/2000/svg">
<path fill-rule="evenodd" clip-rule="evenodd" d="M15.581 1.58134C15.7252 0.988628 16.2787 0.636885 16.8172 0.795703L23.2519 2.69353C23.5104 2.76979 23.7309 2.95601 23.8648 3.2112C23.9986 3.46639 24.0349 3.76966 23.9656 4.0543L22.2414 11.1371C22.0972 11.7298 21.5437 12.0815 21.0052 11.9227C20.4667 11.7639 20.1472 11.1547 20.2914 10.5619L21.3809 6.08656C18.3444 8.14597 15.8193 10.7835 13.8536 13.794C13.6807 14.0587 13.4109 14.2265 13.1157 14.2529C12.8205 14.2793 12.5296 14.1617 12.3202 13.9311L8.07513 9.25853L1.72314 16.2503C1.32895 16.6842 0.689835 16.6842 0.295644 16.2503C-0.0985479 15.8164 -0.0985479 15.1129 0.295644 14.6791L7.36138 6.90162C7.75557 6.46772 8.39468 6.46772 8.78888 6.90162L12.9255 11.4549C14.9455 8.62128 17.4468 6.13264 20.3887 4.14958L16.2947 2.94211C15.7562 2.78329 15.4367 2.17406 15.581 1.58134Z" fill="black"/>
</svg>
