<svg width="18" height="18" viewBox="0 0 18 18" fill="none" xmlns="http://www.w3.org/2000/svg">
<path d="M9.00002 1.80005C9.37282 1.80005 9.67502 2.10226 9.67502 2.47505V7.50614L11.4304 5.61574C11.6841 5.34256 12.1111 5.32675 12.3843 5.58041C12.6575 5.83408 12.6733 6.26117 12.4197 6.53435L9.49466 9.68435C9.36694 9.8219 9.18772 9.90005 9.00002 9.90005C8.81233 9.90005 8.63311 9.8219 8.50539 9.68435L5.58039 6.53435C5.32672 6.26117 5.34254 5.83408 5.61572 5.58041C5.8889 5.32675 6.31599 5.34256 6.56966 5.61574L8.32502 7.50614V2.47505C8.32502 2.10226 8.62723 1.80005 9.00002 1.80005Z" fill="white"/>
<path d="M4.74571 4.05005C4.23961 4.05005 3.7958 4.388 3.66121 4.87588L2.29053 9.8446C2.28546 9.86298 2.28087 9.88146 2.27674 9.90005H5.40002C5.74092 9.90005 6.05256 10.0927 6.20501 10.3976L6.6075 11.2025C6.75995 11.5074 7.07159 11.7 7.41249 11.7H10.5066C10.8243 11.7 11.1184 11.5326 11.2805 11.2595L11.8262 10.3406C11.9883 10.0675 12.2824 9.90005 12.6 9.90005H15.7233C15.7192 9.88146 15.7146 9.86298 15.7095 9.8446L14.3388 4.87588C14.2042 4.388 13.7604 4.05005 13.2543 4.05005H12.375C12.0022 4.05005 11.7 3.74784 11.7 3.37505C11.7 3.00226 12.0022 2.70005 12.375 2.70005H13.2543C14.3678 2.70005 15.3441 3.44354 15.6402 4.51687L17.0109 9.4856C17.07 9.69999 17.1 9.92137 17.1 10.1438V13.5C17.1 14.4942 16.2941 15.3 15.3 15.3H2.70002C1.70591 15.3 0.900024 14.4942 0.900024 13.5V10.1438C0.900024 9.92137 0.93 9.69999 0.989143 9.4856L2.35982 4.51688C2.65592 3.44354 3.63228 2.70005 4.74571 2.70005H5.62502C5.99782 2.70005 6.30002 3.00226 6.30002 3.37505C6.30002 3.74784 5.99782 4.05005 5.62502 4.05005H4.74571Z" fill="white"/>
</svg>
