<svg width="26" height="26" viewBox="0 0 26 26" fill="none" xmlns="http://www.w3.org/2000/svg">
<path d="M13 0C9.46932 0 9.02735 0.0152403 7.64048 0.0762016C6.25361 0.142243 5.31379 0.360687 4.48574 0.680734C3.63228 1.01094 2.90582 1.45799 2.17937 2.17937C1.45291 2.90074 1.01094 3.6272 0.680734 4.48574C0.360687 5.31379 0.142243 6.25869 0.0762016 7.64048C0.0101602 9.02735 0 9.46932 0 13C0 16.5307 0.0152403 16.9726 0.0762016 18.3595C0.142243 19.7413 0.360687 20.6862 0.680734 21.5143C1.01094 22.3677 1.45799 23.0942 2.17937 23.8206C2.90074 24.542 3.6272 24.9891 4.48574 25.3193C5.31379 25.6393 6.25869 25.8578 7.64048 25.9238C9.02735 25.9898 9.46932 26 13 26C16.5307 26 16.9726 25.9848 18.3595 25.9238C19.7413 25.8578 20.6862 25.6393 21.5143 25.3193C22.3677 24.9891 23.0942 24.542 23.8206 23.8206C24.542 23.0993 24.9891 22.3728 25.3193 21.5143C25.6393 20.6862 25.8578 19.7413 25.9238 18.3595C25.9898 16.9726 26 16.5307 26 13C26 9.46932 25.9848 9.02735 25.9238 7.64048C25.8578 6.25869 25.6393 5.31379 25.3193 4.48574C24.9891 3.63228 24.542 2.90582 23.8206 2.17937C23.0993 1.45799 22.3728 1.01094 21.5143 0.680734C20.6862 0.360687 19.7413 0.142243 18.3595 0.0762016C16.9726 0.0152403 16.5307 0 13 0ZM13 2.34193C16.4697 2.34193 16.8863 2.35717 18.2579 2.41813C19.5279 2.47909 20.2138 2.68738 20.671 2.87026C21.2806 3.10395 21.7124 3.38843 22.1696 3.84056C22.6217 4.29777 22.9062 4.72958 23.1399 5.3392C23.3177 5.79641 23.5311 6.48222 23.5869 7.75225C23.6479 9.12388 23.6631 9.53536 23.6631 13.0102C23.6631 16.485 23.6479 16.8964 23.5819 18.2681C23.5158 19.5381 23.3025 20.2239 23.1247 20.6811C22.8808 21.2907 22.6065 21.7225 22.1493 22.1798C21.6971 22.6319 21.2552 22.9164 20.6557 23.1501C20.1985 23.3279 19.5025 23.5412 18.2325 23.5971C16.8507 23.6581 16.4443 23.6733 12.9644 23.6733C9.48456 23.6733 9.07815 23.6581 7.69637 23.592C6.42634 23.526 5.73036 23.3126 5.27315 23.1348C4.65846 22.891 4.23173 22.6166 3.7796 22.1594C3.32239 21.7073 3.03282 21.2653 2.80422 20.6659C2.62642 20.2087 2.41305 19.5127 2.34701 18.2427C2.29621 16.8761 2.28097 16.4545 2.28097 12.9949C2.28097 9.53028 2.29621 9.10864 2.34701 7.72685C2.41305 6.45682 2.62134 5.76084 2.80422 5.30363C3.03282 4.68386 3.32239 4.26221 3.7796 3.805C4.23173 3.35287 4.65846 3.05823 5.27315 2.82962C5.73036 2.65182 6.4111 2.43845 7.68112 2.37241C9.06291 2.32161 9.46932 2.30637 12.9492 2.30637L13 2.34193ZM13 6.32474C9.31184 6.32474 6.31966 9.31692 6.31966 13.0051C6.31966 16.6932 9.31184 19.6854 13 19.6854C16.6882 19.6854 19.6803 16.6932 19.6803 13.0051C19.6803 9.31692 16.6882 6.32474 13 6.32474ZM13 17.3384C10.6073 17.3384 8.66667 15.3978 8.66667 13.0051C8.66667 10.6123 10.6073 8.67175 13 8.67175C15.3927 8.67175 17.3333 10.6123 17.3333 13.0051C17.3333 15.3978 15.3927 17.3384 13 17.3384ZM21.5041 6.06565C21.5041 6.92927 20.803 7.62524 19.9445 7.62524C19.0809 7.62524 18.3849 6.92419 18.3849 6.06565C18.3849 5.20711 19.086 4.50606 19.9445 4.50606C20.803 4.50098 21.5041 5.20203 21.5041 6.06565Z" fill="white"/>
</svg>
