<svg width="26" height="26" viewBox="0 0 26 26" fill="none" xmlns="http://www.w3.org/2000/svg">
<path d="M22.1532 22.1583H18.3014V16.1271C18.3014 14.6877 18.271 12.8378 16.2943 12.8378C14.2873 12.8378 13.9782 14.4039 13.9782 16.0207V22.1583H10.1263V9.75127H13.8261V11.4441H13.8768C14.3938 10.471 15.6507 9.4421 17.5259 9.4421C21.4285 9.4421 22.1481 12.0117 22.1481 15.3517L22.1532 22.1583ZM5.78285 8.05341C4.54113 8.05341 3.54776 7.0499 3.54776 5.81832C3.54776 4.58674 4.5462 3.58324 5.78285 3.58324C7.01949 3.58324 8.01793 4.58674 8.01793 5.81832C8.01793 7.0499 7.01443 8.05341 5.78285 8.05341ZM7.71384 22.1583H3.85185V9.75127H7.71384V22.1583ZM24.0791 0H1.92086C0.861598 0 0 0.836257 0 1.87524V24.1248C0 25.1587 0.85653 26 1.92086 26H24.0741C25.1333 26 26 25.1637 26 24.1248V1.87524C26 0.836257 25.1333 0 24.0791 0Z" fill="white"/>
</svg>
