<svg width="75" height="28" viewBox="0 0 75 28" fill="none" xmlns="http://www.w3.org/2000/svg">
<path d="M75 0.532715C75 0.532715 74.9853 0.566991 74.9755 0.581681C63.9295 9.60124 56.3174 13.0827 51.1642 13.9886C49.9935 14.1943 47.0593 14.6301 44.1643 16.7405C43.841 16.9755 43.5275 17.2204 43.2336 17.4799C43.1014 17.5925 42.9691 17.71 42.8466 17.8275L42.832 17.8422C42.6899 17.9695 42.5527 18.1018 42.4254 18.2389C42.2882 18.3711 42.1609 18.5082 42.0384 18.6453C41.9208 18.7726 41.8082 18.8999 41.7004 19.0321C41.6857 19.0468 41.671 19.0664 41.6563 19.0811C41.6367 19.1105 41.6122 19.1349 41.5926 19.1594C41.4996 19.2672 41.4163 19.37 41.333 19.4777C41.2106 19.6246 41.0979 19.7764 40.9852 19.9282C40.9852 19.9282 40.7893 19.987 40.4954 20.1828C40.4562 20.2073 40.4219 20.2318 40.3778 20.2612C40.2848 20.3297 40.177 20.4081 40.0692 20.5109C39.9958 20.5697 39.9174 20.6431 39.839 20.7214C39.6578 20.9026 39.4716 21.123 39.2806 21.3923C39.2463 21.4412 39.212 21.4902 39.1728 21.5441C39.1434 21.5881 39.114 21.6371 39.0797 21.691C39.0308 21.7693 38.9769 21.8575 38.9279 21.9456C38.874 22.0337 38.825 22.1268 38.776 22.2247C38.7271 22.3177 38.6781 22.4108 38.634 22.5136C38.5507 22.685 38.4723 22.8711 38.3989 23.0669C38.3303 23.2432 38.2666 23.4293 38.2029 23.6251C38.1343 23.8308 38.0707 24.0413 38.0168 24.2666C37.9776 24.4135 37.9433 24.5604 37.909 24.7171C37.8747 24.864 37.8453 25.0109 37.8159 25.1676C37.7523 25.5054 37.6935 25.8678 37.6494 26.2497C37.6445 26.2791 37.6445 26.3085 37.6396 26.3379V26.3623C37.6298 26.4505 37.62 26.5435 37.6102 26.6414C37.6053 26.6414 37.6053 26.6561 37.6053 26.6659C37.6004 26.71 37.5955 26.759 37.5955 26.8079C37.5857 26.9059 37.5759 27.0038 37.571 27.1066C37.5563 27.2731 37.5465 27.4445 37.5367 27.6208C37.5269 27.6306 37.5122 27.6404 37.5024 27.6502C37.4927 27.6404 37.478 27.6306 37.4682 27.6208C37.1253 20.8781 34.0148 19.9282 34.0148 19.9282C33.907 19.7813 33.7992 19.6344 33.6817 19.4924C33.569 19.3455 33.4514 19.2035 33.329 19.0615C33.3045 19.0272 33.2751 18.9978 33.2506 18.9685C33.2114 18.9244 33.1771 18.8803 33.1379 18.8363C33.0792 18.7726 33.0253 18.7089 32.9616 18.6453C32.9126 18.5865 32.8587 18.5327 32.8048 18.4739C32.7314 18.3956 32.653 18.3123 32.5746 18.2389C32.4424 18.1018 32.3052 17.9695 32.168 17.8422C32.0407 17.7198 31.9084 17.6023 31.7762 17.4848C31.4774 17.2302 31.1639 16.9804 30.8357 16.7405C27.9407 14.6301 25.0065 14.1943 23.8358 13.9886C18.6826 13.0827 11.0754 9.60124 0.0244922 0.581681C0.0146953 0.566991 0.00979688 0.547405 0 0.532715L24.4432 8.89613C26.3977 9.56207 28.2885 10.3847 30.0911 11.3493C30.3899 11.506 30.6838 11.6676 30.9777 11.8341C31.0708 11.888 31.159 11.9369 31.252 11.9908C33.1722 13.0925 34.9896 14.3607 36.6893 15.7661C36.8608 15.9081 37.0273 16.0501 37.1938 16.2019L37.2967 16.29C37.3653 16.3439 37.429 16.4026 37.4976 16.4614H37.5024C38.6585 15.4429 39.8733 14.4979 41.1469 13.6263C41.2693 13.543 41.3869 13.4598 41.5094 13.3863C41.5339 13.3716 41.5584 13.352 41.5828 13.3374C44.3456 11.4864 47.3581 9.98807 50.5568 8.89613L75 0.532715Z" fill="url(#paint0_linear_174_82)"/>
<defs>
<linearGradient id="paint0_linear_174_82" x1="0" y1="14.0914" x2="75" y2="14.0914" gradientUnits="userSpaceOnUse">
<stop stop-color="white"/>
<stop offset="1" stop-color="#E1E2E3"/>
</linearGradient>
</defs>
</svg>