<svg width="18" height="18" viewBox="0 0 18 18" fill="none" xmlns="http://www.w3.org/2000/svg">
<path fill-rule="evenodd" clip-rule="evenodd" d="M9.00002 1.80005C6.98769 1.80005 5.01251 1.9612 3.08681 2.27141C1.79407 2.47967 0.900024 3.61197 0.900024 4.88334V9.51675C0.900024 10.7881 1.79408 11.9204 3.08681 12.1287C3.85035 12.2517 4.62168 12.3513 5.40002 12.4266V15.525C5.40002 15.7981 5.56448 16.0442 5.81671 16.1487C6.06894 16.2531 6.35927 16.1954 6.55232 16.0023L9.77349 12.7812C9.89575 12.6589 10.0649 12.5854 10.2483 12.5793C11.8303 12.5267 13.3873 12.3745 14.9132 12.1287C16.206 11.9204 17.1 10.7881 17.1 9.51675V4.88334C17.1 3.61197 16.206 2.47967 14.9132 2.27141C12.9875 1.9612 11.0124 1.80005 9.00002 1.80005ZM9.00002 8.10005C9.49708 8.10005 9.90002 7.69711 9.90002 7.20005C9.90002 6.70299 9.49708 6.30005 9.00002 6.30005C8.50297 6.30005 8.10002 6.70299 8.10002 7.20005C8.10002 7.69711 8.50297 8.10005 9.00002 8.10005ZM7.20002 7.20005C7.20002 7.69711 6.79708 8.10005 6.30002 8.10005C5.80297 8.10005 5.40002 7.69711 5.40002 7.20005C5.40002 6.70299 5.80297 6.30005 6.30002 6.30005C6.79708 6.30005 7.20002 6.70299 7.20002 7.20005ZM11.7 8.10005C12.1971 8.10005 12.6 7.69711 12.6 7.20005C12.6 6.70299 12.1971 6.30005 11.7 6.30005C11.203 6.30005 10.8 6.70299 10.8 7.20005C10.8 7.69711 11.203 8.10005 11.7 8.10005Z" fill="white"/>
</svg>
