<svg width="24" height="25" viewBox="0 0 24 25" fill="none" xmlns="http://www.w3.org/2000/svg">
<path d="M15.7498 8.58325C16.164 8.58325 16.4998 8.91904 16.4998 9.33325C16.4998 10.4534 16.0077 11.4595 15.2304 12.1456C14.9199 12.4197 14.4459 12.3901 14.1718 12.0796C13.8977 11.769 13.9273 11.295 14.2378 11.0209C14.7062 10.6076 14.9998 10.0052 14.9998 9.33325C14.9998 8.91904 15.3356 8.58325 15.7498 8.58325Z" fill="#171717"/>
<path fill-rule="evenodd" clip-rule="evenodd" d="M12 2.58325C6.61522 2.58325 2.25 6.94848 2.25 12.3333C2.25 17.718 6.61522 22.0833 12 22.0833C17.3848 22.0833 21.75 17.718 21.75 12.3333C21.75 6.94848 17.3848 2.58325 12 2.58325ZM4.5749 15.9335C5.91195 18.6859 8.7344 20.5833 12 20.5833C12.6623 20.5833 13.3063 20.5052 13.9234 20.3578C13.6364 19.5936 12.9044 19.0833 12.0828 19.0833C11.6022 19.0833 11.1921 18.7358 11.1131 18.2618L11.0401 17.824C10.9461 17.2596 11.2906 16.7145 11.8408 16.5573L12.8295 16.2748C13.2567 16.1528 13.6131 15.857 13.8119 15.4595L13.8484 15.3865C14.0945 14.8942 14.5977 14.5833 15.1481 14.5833C15.5335 14.5833 15.9031 14.7363 16.1756 15.0089L16.5 15.3333H17.1283C17.9669 15.3333 18.724 15.7979 19.1108 16.519C19.8347 15.2919 20.25 13.8611 20.25 12.3333C20.25 8.03506 16.963 4.50457 12.7656 4.11831C12.81 4.38128 12.9468 4.62225 13.1548 4.79558L14.2234 5.68609C14.6651 6.05415 14.7582 6.696 14.4393 7.17437L13.9282 7.94092C13.6507 8.35723 13.2423 8.66915 12.7676 8.82738L12.6254 8.87479C11.9327 9.10568 11.6492 9.93202 12.0542 10.5395C12.4237 11.0937 12.2238 11.8464 11.6281 12.1442L9 13.4583L9.4234 14.5167C9.608 14.9783 9.40803 15.5042 8.96343 15.7265C8.5503 15.9331 8.04855 15.8147 7.77142 15.4451L7.09217 14.5395C6.59039 13.8704 5.55995 13.9634 5.18594 14.7114L4.5749 15.9335Z" fill="#171717"/>
</svg>
