<svg width="37" height="26" viewBox="0 0 37 26" fill="none" xmlns="http://www.w3.org/2000/svg">
<path d="M14.6792 18.4874V7.5126L24.3231 13L14.6792 18.4874ZM36.1352 4.05962C35.7108 2.46114 34.4583 1.20174 32.8714 0.775018C29.9927 -6.87421e-08 18.4528 0 18.4528 0C18.4528 0 6.91288 -6.87421e-08 4.03424 0.775018C2.4473 1.20174 1.19482 2.46114 0.770405 4.05962C0 6.95671 0 13 0 13C0 13 0 19.0433 0.770405 21.9404C1.19482 23.5389 2.4473 24.7983 4.03424 25.225C6.91288 26 18.4528 26 18.4528 26C18.4528 26 29.9927 26 32.8714 25.225C34.4583 24.7983 35.7108 23.5389 36.1352 21.9404C36.9056 19.0433 36.9056 13 36.9056 13C36.9056 13 36.9056 6.95671 36.1352 4.05962Z" fill="white"/>
</svg>
